<svg width="21" height="22" viewBox="0 0 21 22" fill="none" xmlns="http://www.w3.org/2000/svg">
<path d="M20.9793 7.08416L20.6867 4.28884C20.2628 1.24124 18.8803 0 15.9235 0H13.542H12.0485H8.98067H7.48714H5.06521C2.09834 0 0.725912 1.24124 0.291982 4.31912L0.0195142 7.09425C-0.0813997 8.17403 0.211251 9.22353 0.847008 10.0409C1.61395 11.04 2.79465 11.6051 4.10653 11.6051C5.37804 11.6051 6.5991 10.9693 7.36605 9.95011C8.05226 10.9693 9.22286 11.6051 10.5247 11.6051C11.8264 11.6051 12.9668 10.9996 13.6631 9.99048C14.4401 10.9895 15.641 11.6051 16.8923 11.6051C18.2345 11.6051 19.4454 11.0097 20.2023 9.9602C20.8078 9.15289 21.0802 8.13366 20.9793 7.08416Z" fill="#15161E"/>
<path d="M9.86894 15.5511C8.58733 15.6823 7.61856 16.7721 7.61856 18.0638V20.8289C7.61856 21.1013 7.84057 21.3234 8.11304 21.3234H12.9266C13.1991 21.3234 13.4211 21.1013 13.4211 20.8289V18.417C13.4312 16.3079 12.19 15.3089 9.86894 15.5511Z" fill="#15161E"/>
<path d="M19.9803 13.2703V16.2775C19.9803 19.0627 17.7198 21.3232 14.9346 21.3232C14.6621 21.3232 14.4401 21.1012 14.4401 20.8287V18.4169C14.4401 17.1252 14.0465 16.116 13.2796 15.4298C12.6035 14.8142 11.6852 14.5115 10.5448 14.5115C10.2925 14.5115 10.0403 14.5216 9.76779 14.5519C7.97152 14.7335 6.60918 16.2472 6.60918 18.0637V20.8287C6.60918 21.1012 6.38717 21.3232 6.1147 21.3232C3.32948 21.3232 1.06901 19.0627 1.06901 16.2775V13.2904C1.06901 12.584 1.76531 12.1097 2.42125 12.3419C2.69372 12.4327 2.96619 12.5033 3.24875 12.5437C3.36984 12.5639 3.50103 12.584 3.62213 12.584C3.78359 12.6042 3.94505 12.6143 4.10652 12.6143C5.27712 12.6143 6.42754 12.1804 7.33576 11.4336C8.20362 12.1804 9.33386 12.6143 10.5246 12.6143C11.7255 12.6143 12.8356 12.2006 13.7034 11.4538C14.6117 12.1905 15.7419 12.6143 16.8923 12.6143C17.074 12.6143 17.2556 12.6042 17.4272 12.584C17.5483 12.574 17.6593 12.5639 17.7703 12.5437C18.0831 12.5033 18.3657 12.4125 18.6482 12.3217C19.3042 12.0997 19.9803 12.584 19.9803 13.2703Z" fill="#15161E"/>
</svg>
