<svg width="3" height="10" viewBox="0 0 3 10" fill="none" xmlns="http://www.w3.org/2000/svg">
<path d="M1.50004 9.39066C1.06167 9.39066 0.698649 9.24682 0.41097 8.95915C0.13699 8.65777 0 8.29474 0 7.87007C0 7.43171 0.13699 7.06868 0.41097 6.781C0.698649 6.49332 1.06167 6.34949 1.50004 6.34949C1.93841 6.34949 2.29458 6.49332 2.56856 6.781C2.85624 7.06868 3.00008 7.43171 3.00008 7.87007C3.00008 8.29474 2.85624 8.65777 2.56856 8.95915C2.29458 9.24682 1.93841 9.39066 1.50004 9.39066ZM1.50004 3.04118C1.06167 3.04118 0.698649 2.89734 0.41097 2.60966C0.13699 2.30828 0 1.94526 0 1.52059C0 1.08222 0.13699 0.719197 0.41097 0.431518C0.698649 0.14384 1.06167 0 1.50004 0C1.93841 0 2.29458 0.14384 2.56856 0.431518C2.85624 0.719197 3.00008 1.08222 3.00008 1.52059C3.00008 1.94526 2.85624 2.30828 2.56856 2.60966C2.29458 2.89734 1.93841 3.04118 1.50004 3.04118Z" fill="#010101"/>
</svg>
