<svg width="18" height="18" viewBox="0 0 18 18" fill="none" xmlns="http://www.w3.org/2000/svg">
<path d="M15.0227 5.50949L6.46142 1.22885C0.710565 -1.65158 -1.64979 0.708775 1.23064 6.45963L2.10077 8.19989C2.35081 8.70997 2.35081 9.30006 2.10077 9.81013L1.23064 11.5404C-1.64979 17.2912 0.700564 19.6516 6.46142 16.7712L15.0227 12.4905C18.8633 10.5702 18.8633 7.42978 15.0227 5.50949ZM11.7922 9.75012H6.39141C5.98135 9.75012 5.6413 9.41007 5.6413 9.00001C5.6413 8.58995 5.98135 8.2499 6.39141 8.2499H11.7922C12.2023 8.2499 12.5423 8.58995 12.5423 9.00001C12.5423 9.41007 12.2023 9.75012 11.7922 9.75012Z" fill="#15161E"/>
</svg>
