<svg width="18" height="22" viewBox="0 0 18 22" fill="none" xmlns="http://www.w3.org/2000/svg">
<path d="M8.95092 1.75002C5.58261 1.75002 2.84522 4.48741 2.84522 7.85572V10.7966C2.84522 11.4174 2.58064 12.3638 2.26518 12.8929L1.09492 14.8366C0.372414 16.0374 0.871046 17.3704 2.19395 17.8182C6.57988 19.2836 11.3118 19.2836 15.6977 17.8182C16.929 17.4111 17.4684 15.956 16.7967 14.8366L15.6265 12.8929C15.3212 12.3638 15.0566 11.4174 15.0566 10.7966V7.85572C15.0566 4.49759 12.3091 1.75002 8.95092 1.75002Z" stroke="#010101" stroke-width="1.5" stroke-miterlimit="10" stroke-linecap="round"/>
<path d="M10.8333 2.04541C10.5179 1.95382 10.1922 1.88259 9.85643 1.84189C8.87952 1.71977 7.94331 1.79101 7.06816 2.04541C7.36327 1.29237 8.09596 0.763213 8.95075 0.763213C9.80555 0.763213 10.5382 1.29237 10.8333 2.04541Z" stroke="#010101" stroke-width="1.5" stroke-miterlimit="10" stroke-linecap="round" stroke-linejoin="round"/>
<path d="M12.0037 18.1839C12.0037 19.863 10.6299 21.2368 8.95085 21.2368C8.11641 21.2368 7.34302 20.8908 6.79351 20.3413C6.24399 19.7918 5.898 19.0184 5.898 18.1839" stroke="#010101" stroke-width="1.5" stroke-miterlimit="10"/>
</svg>
